# xmcd
#
# Track frame offsets:
#	150
#	13352
#	23530
#	36432
#	48897
#	59507
#	74975
#	87512
#	99817
#	112567
#	124782
#	138452
#	148640
#	170372
#	182225
#	192092
#	204290
#	220037
#
# Disc length: 3074 seconds
#
# Revision: 3
# Processed by: cddbd v1.5.2PL0 Copyright (c) Steve Scherf et al.
# Submitted via: ExactAudioCopy v0.99pb4
#
DISCID=000c0012
DTITLE=Various Artist - Rhythm and Blues Classics
DYEAR=1996
DGENRE=Rhythm and Blues
TTITLE0=Eddy Floyd - Knock on Wood
TTITLE1=Aretha Franklin - Think
TTITLE2=Sam and Dave - I Thank You
TTITLE3=Bob and Earl - Harlem Shuffle
TTITLE4=Lloyd Price - Stagger Lee
TTITLE5=Rare Earth Feat. Peter Rivera - I Just Want to Celebrate
TTITLE6=Chris Kenner - Land of A Thousand Dances
TTITLE7=Jackie Wilson - Reet Petite
TTITLE8=Fontella Bass - Rescue Me
TTITLE9=Billy Stewart - Summertime
TTITLE10=Ike and Tina Turner - It's Gonna Work Out Fine
TTITLE11=Wilson Pickett - Give Your Lovin' Right Now
TTITLE12=Staple Singers, (The) - Respect Yourself
TTITLE13=Martha Reeves and the Vandellas - Dancing in the Street
TTITLE14=Chiffons, (The) - Sweet Talkin' Guy
TTITLE15=Dixie Cups, (The) - Chapel of Love
TTITLE16=Ben E. King - Supernatural Thing
TTITLE17=Lee Dorsey - Ya Ya
EXTD=YEAR: 1996
EXTT0=
EXTT1=
EXTT2=
EXTT3=
EXTT4=
EXTT5=
EXTT6=
EXTT7=
EXTT8=
EXTT9=
EXTT10=
EXTT11=
EXTT12=
EXTT13=
EXTT14=
EXTT15=
EXTT16=
EXTT17=
PLAYORDER=
